# xmcd
#
# Track frame offsets:
#	182
#	11575
#	23020
#	34425
#	46082
#	57670
#	67905
#	79115
#	89717
#	101787
#	113520
#	127090
#	139810
#	150432
#	163507
#
# Disc length: 2374 seconds
#
# Revision: 0
# Processed by: cddbd v1.4PL0 Copyright (c) Steve Scherf et al.
# Submitted via: audiograbber 1.81.01
#
DISCID=c309440f
DTITLE=Compils - Queens of Country Music
DYEAR=1987
DGENRE=Country
TTITLE0=Patsy Cline - Just out of reach
TTITLE1=Patti Page - You belong to me
TTITLE2=Jeannie C. Riley - Am I that easy to forget
TTITLE3=Patsy Cline - Walkin' after midnight
TTITLE4=Patti Page - Why don't you believe me
TTITLE5=Jeannie C. Riley - Things go better with love
TTITLE6=Patsy Cline - Stop the world and let me off
TTITLE7=Jeannie C. Riley - Help me make it through the night
TTITLE8=Patti Page - Mockingbird Hill
TTITLE9=Jeannie C. Riley - Before the next teardrop falls
TTITLE10=Patti Page - Tennessee waltz
TTITLE11=Jeannie C. Riley - Roses and thorns
TTITLE12=Patsy Cline - I can see an angel
TTITLE13=Patti Page - Gentle on my mind
TTITLE14=Jeannie C. Riley - Harper valley pta
EXTD=
EXTT0=
EXTT1=
EXTT2=
EXTT3=
EXTT4=
EXTT5=
EXTT6=
EXTT7=
EXTT8=
EXTT9=
EXTT10=
EXTT11=
EXTT12=
EXTT13=
EXTT14=
PLAYORDER=
